<svg xmlns="http://www.w3.org/2000/svg" width="3600" height="2920" viewBox="0 0 3600 2920">
  <defs>
    <style>
      .canvas{fill:#e9edf3}.appbg{fill:#f5f7fb}.panel{fill:#fff;stroke:#dfe5ee;stroke-width:1.4}.sidebar{fill:#18202b}.primary{fill:#2b6cb0}.danger{fill:#dc3545}.success{fill:#198754}.warning{fill:#ffc107}.info{fill:#0dcaf0}
      .text{fill:#263238;font-family:Inter,Arial,sans-serif}.muted{fill:#6b7280;font-family:Inter,Arial,sans-serif}.white{fill:#fff;font-family:Inter,Arial,sans-serif}.soft{fill:#f8fafc}.line{stroke:#dfe5ee;stroke-width:1.4}
      .title{font-size:30px;font-weight:800}.frame-title{font-size:20px;font-weight:800}.h{font-size:17px;font-weight:800}.body{font-size:14px}.small{font-size:12px}.tiny{font-size:10px}.value{font-size:26px;font-weight:800}
    </style>
  </defs>

  <rect class="canvas" width="3600" height="2920"/>
  <text x="56" y="66" class="text title">Complete Figma Mockup - Aplikasi Persediaan Barang Toko Sembako</text>
  <text x="56" y="96" class="muted body">SVG importable untuk Figma. Semua layar utama web: login, dashboard, master data CRUD, transaksi, laporan, dan mobile.</text>

  <!-- Legend -->
  <g transform="translate(56 125)">
    <rect width="760" height="72" rx="10" class="panel"/>
    <text x="22" y="30" class="text h">Role Navigation</text>
    <text x="22" y="54" class="muted body">Admin: Dashboard, Master Data, Transaksi, Laporan</text>
    <text x="330" y="54" class="muted body">Staff: Dashboard, Transaksi, Laporan</text>
    <text x="575" y="54" class="muted body">Owner: Dashboard, Laporan</text>
  </g>

  <!-- Reusable desktop chrome examples are drawn inline per frame for Figma-friendly import -->

  <!-- 1 Login -->
  <g id="login" transform="translate(56 240)">
    <text x="0" y="-18" class="text frame-title">01. Login</text>
    <rect width="520" height="430" rx="18" class="appbg"/>
    <rect x="130" y="54" width="260" height="320" rx="8" class="panel"/>
    <text x="260" y="105" text-anchor="middle" class="text h">Persediaan Sembako</text>
    <text x="260" y="130" text-anchor="middle" class="muted small">Masuk untuk mengelola stok barang</text>
    <text x="160" y="178" class="text small">Email</text>
    <rect x="160" y="188" width="200" height="36" rx="5" fill="#fff" stroke="#d7dce3"/>
    <text x="160" y="254" class="text small">Password</text>
    <rect x="160" y="264" width="200" height="36" rx="5" fill="#fff" stroke="#d7dce3"/>
    <rect x="160" y="318" width="13" height="13" rx="3" fill="#fff" stroke="#d7dce3"/>
    <text x="182" y="329" class="muted small">Ingat saya</text>
    <rect x="160" y="346" width="200" height="40" rx="6" class="primary"/>
    <text x="260" y="371" text-anchor="middle" class="white body">Login</text>
  </g>

  <!-- 2 Dashboard Admin -->
  <g id="dashboard-admin" transform="translate(620 240)">
    <text x="0" y="-18" class="text frame-title">02. Dashboard Admin</text>
    <rect width="900" height="430" rx="18" class="appbg"/>
    <rect width="180" height="430" rx="18" class="sidebar"/>
    <rect x="160" width="20" height="430" class="sidebar"/>
    <text x="18" y="40" class="white h">Toko Sembako</text>
    <rect x="16" y="72" width="148" height="38" rx="7" class="primary"/>
    <text x="40" y="96" class="white body">Dashboard</text>
    <text x="18" y="146" class="muted tiny">MASTER DATA</text>
    <text x="34" y="180" class="white small" opacity=".78">Kategori</text>
    <text x="34" y="212" class="white small" opacity=".78">Barang</text>
    <text x="34" y="244" class="white small" opacity=".78">Pengguna</text>
    <text x="18" y="292" class="muted tiny">TRANSAKSI</text>
    <text x="34" y="326" class="white small" opacity=".78">Stok Masuk/Keluar</text>
    <text x="18" y="374" class="muted tiny">LAPORAN</text>
    <text x="34" y="406" class="white small" opacity=".78">Mutasi Stok</text>
    <rect x="180" width="720" height="62" fill="#fff"/>
    <line x1="180" y1="62" x2="900" y2="62" class="line"/>
    <text x="202" y="30" class="text h">Dashboard</text>
    <text x="202" y="50" class="muted small">Aplikasi Persediaan Barang Toko Sembako</text>
    <text x="816" y="31" text-anchor="end" class="text body" font-weight="800">Administrator</text>
    <text x="816" y="50" text-anchor="end" class="muted small">Admin</text>
    <rect x="830" y="20" width="54" height="28" rx="5" fill="#fff" stroke="#6b7280"/>
    <text x="857" y="38" text-anchor="middle" class="muted tiny">Logout</text>
    <g transform="translate(202 92)">
      <rect width="126" height="66" rx="8" class="panel"/><rect x="14" y="18" width="36" height="36" rx="8" fill="#cfe2ff"/><text x="62" y="30" class="muted small">Total Barang</text><text x="62" y="55" class="text value">2</text>
    </g>
    <g transform="translate(344 92)">
      <rect width="126" height="66" rx="8" class="panel"/><rect x="14" y="18" width="36" height="36" rx="8" fill="#d1eadf"/><text x="62" y="30" class="muted small">Stok Masuk</text><text x="62" y="55" class="text value">10</text>
    </g>
    <g transform="translate(486 92)">
      <rect width="126" height="66" rx="8" class="panel"/><rect x="14" y="18" width="36" height="36" rx="8" fill="#fff0bd"/><text x="62" y="30" class="muted small">Stok Keluar</text><text x="62" y="55" class="text value">0</text>
    </g>
    <g transform="translate(628 92)">
      <rect width="126" height="66" rx="8" class="panel"/><rect x="14" y="18" width="36" height="36" rx="8" fill="#f9d5dc"/><text x="62" y="30" class="muted small">Stok Kritis</text><text x="62" y="55" class="text value">1</text>
    </g>
    <g transform="translate(770 92)">
      <rect width="114" height="66" rx="8" class="panel"/><rect x="12" y="18" width="34" height="36" rx="8" fill="#cff4fc"/><text x="56" y="30" class="muted small">Tertinggi</text><text x="56" y="55" class="text value">35</text>
    </g>
    <g transform="translate(202 190)">
      <rect width="335" height="178" rx="8" class="panel"/>
      <text x="18" y="30" class="text h">5 Stok Tertinggi</text><rect x="238" y="15" width="78" height="22" rx="11" fill="#cff4fc"/><text x="277" y="30" text-anchor="middle" class="tiny" fill="#0c6b78" font-family="Inter,Arial">Top Stock</text>
      <line x1="18" y1="50" x2="317" y2="50" class="line"/>
      <text x="18" y="75" class="text small">Beras Premium 5kg</text><text x="18" y="93" class="muted tiny">BRS-001 - Beras</text><text x="305" y="82" text-anchor="end" class="text body" font-weight="800">35</text>
      <line x1="18" y1="112" x2="317" y2="112" class="line"/>
      <text x="18" y="137" class="text small">Minyak Goreng 1L</text><text x="18" y="155" class="muted tiny">MYK-001 - Minyak Goreng</text><text x="305" y="144" text-anchor="end" class="text body" font-weight="800">8</text>
    </g>
    <g transform="translate(555 190)">
      <rect width="329" height="178" rx="8" class="panel"/>
      <text x="18" y="30" class="text h">5 Stok Terendah</text><rect x="232" y="15" width="78" height="22" rx="11" fill="#f8d7da"/><text x="271" y="30" text-anchor="middle" class="tiny" fill="#842029" font-family="Inter,Arial">Low Stock</text>
      <line x1="18" y1="50" x2="311" y2="50" class="line"/>
      <text x="18" y="75" class="text small">Minyak Goreng 1L</text><text x="18" y="93" class="muted tiny">MYK-001 - Minyak Goreng</text><text x="299" y="82" text-anchor="end" class="text body" font-weight="800">8</text>
      <line x1="18" y1="112" x2="311" y2="112" class="line"/>
      <text x="18" y="137" class="text small">Beras Premium 5kg</text><text x="18" y="155" class="muted tiny">BRS-001 - Beras</text><text x="299" y="144" text-anchor="end" class="text body" font-weight="800">35</text>
    </g>
  </g>

  <!-- 3 Dashboard Staff -->
  <g id="dashboard-staff" transform="translate(1564 240)">
    <text x="0" y="-18" class="text frame-title">03. Dashboard Staff Inventory</text>
    <rect width="560" height="430" rx="18" class="appbg"/>
    <rect width="150" height="430" rx="18" class="sidebar"/><rect x="130" width="20" height="430" class="sidebar"/>
    <text x="18" y="40" class="white h">Toko Sembako</text>
    <rect x="14" y="72" width="122" height="36" rx="7" class="primary"/><text x="36" y="95" class="white small">Dashboard</text>
    <text x="18" y="150" class="muted tiny">TRANSAKSI</text><text x="30" y="184" class="white small" opacity=".78">Stok Masuk/Keluar</text>
    <text x="18" y="236" class="muted tiny">LAPORAN</text><text x="30" y="270" class="white small" opacity=".78">Mutasi Stok</text>
    <rect x="150" width="410" height="62" fill="#fff"/><text x="172" y="36" class="text h">Dashboard</text><text x="505" y="36" text-anchor="end" class="text small" font-weight="800">Staff Inventory</text>
    <rect x="172" y="92" width="170" height="66" rx="8" class="panel"/><text x="196" y="124" class="muted small">Total Barang</text><text x="196" y="150" class="text value">2</text>
    <rect x="362" y="92" width="170" height="66" rx="8" class="panel"/><text x="386" y="124" class="muted small">Stok Masuk</text><text x="386" y="150" class="text value">10</text>
    <rect x="172" y="190" width="360" height="150" rx="8" class="panel"/><text x="196" y="225" class="text h">Akses Staff</text><text x="196" y="255" class="muted body">Transaksi Stok Masuk/Keluar</text><text x="196" y="282" class="muted body">Laporan Mutasi Stok</text><text x="196" y="309" class="muted body">Tidak dapat mengakses Master Data</text>
  </g>

  <!-- 4 Dashboard Owner -->
  <g id="dashboard-owner" transform="translate(2168 240)">
    <text x="0" y="-18" class="text frame-title">04. Dashboard Owner</text>
    <rect width="560" height="430" rx="18" class="appbg"/>
    <rect width="150" height="430" rx="18" class="sidebar"/><rect x="130" width="20" height="430" class="sidebar"/>
    <text x="18" y="40" class="white h">Toko Sembako</text>
    <rect x="14" y="72" width="122" height="36" rx="7" class="primary"/><text x="36" y="95" class="white small">Dashboard</text>
    <text x="18" y="150" class="muted tiny">LAPORAN</text><text x="30" y="184" class="white small" opacity=".78">Mutasi Stok</text>
    <rect x="150" width="410" height="62" fill="#fff"/><text x="172" y="36" class="text h">Dashboard</text><text x="505" y="36" text-anchor="end" class="text small" font-weight="800">Owner</text>
    <rect x="172" y="92" width="170" height="66" rx="8" class="panel"/><text x="196" y="124" class="muted small">Total Barang</text><text x="196" y="150" class="text value">2</text>
    <rect x="362" y="92" width="170" height="66" rx="8" class="panel"/><text x="386" y="124" class="muted small">Stok Kritis</text><text x="386" y="150" class="text value">1</text>
    <rect x="172" y="190" width="360" height="150" rx="8" class="panel"/><text x="196" y="225" class="text h">Akses Owner</text><text x="196" y="255" class="muted body">Melihat Dashboard</text><text x="196" y="282" class="muted body">Melihat dan filter Laporan</text><text x="196" y="309" class="muted body">Tidak dapat mengubah data</text>
  </g>

  <!-- Master data index frames -->
  <g id="category-index" transform="translate(56 760)">
    <text x="0" y="-18" class="text frame-title">05. Master Kategori - List</text>
    <rect width="520" height="360" rx="18" class="appbg"/>
    <rect x="28" y="28" width="464" height="304" rx="8" class="panel"/>
    <text x="52" y="68" class="text h">Kategori</text><rect x="404" y="45" width="64" height="30" rx="6" class="primary"/><text x="436" y="64" text-anchor="middle" class="white tiny">Tambah</text>
    <line x1="52" y1="96" x2="468" y2="96" class="line"/>
    <text x="52" y="122" class="muted small">Nama</text><text x="175" y="122" class="muted small">Deskripsi</text><text x="330" y="122" class="muted small">Jumlah</text><text x="410" y="122" class="muted small">Aksi</text>
    <line x1="52" y1="138" x2="468" y2="138" class="line"/>
    <text x="52" y="170" class="text small">Beras</text><text x="175" y="170" class="muted small">Produk beras</text><text x="345" y="170" class="text small">1</text><text x="410" y="170" class="primary tiny">Detail</text><text x="445" y="170" class="primary tiny">Edit</text>
    <line x1="52" y1="192" x2="468" y2="192" class="line"/>
    <text x="52" y="224" class="text small">Minyak Goreng</text><text x="175" y="224" class="muted small">Produk minyak</text><text x="345" y="224" class="text small">1</text><text x="410" y="224" class="primary tiny">Detail</text><text x="445" y="224" class="primary tiny">Edit</text>
  </g>

  <g id="category-form" transform="translate(620 760)">
    <text x="0" y="-18" class="text frame-title">06. Master Kategori - Tambah/Edit</text>
    <rect width="520" height="360" rx="18" class="appbg"/>
    <rect x="28" y="28" width="464" height="304" rx="8" class="panel"/>
    <text x="52" y="68" class="text h">Form Kategori</text>
    <text x="52" y="112" class="muted small">Nama Kategori</text><rect x="52" y="124" width="416" height="34" rx="5" fill="#fff" stroke="#d7dce3"/><text x="66" y="146" class="muted small">Beras</text>
    <text x="52" y="190" class="muted small">Deskripsi</text><rect x="52" y="202" width="416" height="80" rx="5" fill="#fff" stroke="#d7dce3"/><text x="66" y="226" class="muted small">Produk beras kemasan dan curah</text>
    <rect x="52" y="302" width="80" height="32" rx="6" class="primary"/><text x="92" y="322" text-anchor="middle" class="white small">Simpan</text>
    <rect x="142" y="302" width="70" height="32" rx="6" fill="#fff" stroke="#6b7280"/><text x="177" y="322" text-anchor="middle" class="muted small">Batal</text>
  </g>

  <g id="category-detail" transform="translate(1184 760)">
    <text x="0" y="-18" class="text frame-title">07. Master Kategori - Detail</text>
    <rect width="520" height="360" rx="18" class="appbg"/>
    <rect x="28" y="28" width="464" height="90" rx="8" class="panel"/>
    <text x="52" y="66" class="text h">Beras</text><text x="52" y="92" class="muted small">Produk beras kemasan dan curah</text>
    <rect x="28" y="138" width="464" height="194" rx="8" class="panel"/>
    <text x="52" y="174" class="text h">Barang dalam kategori ini</text>
    <line x1="52" y1="198" x2="468" y2="198" class="line"/>
    <text x="52" y="226" class="muted small">Kode</text><text x="142" y="226" class="muted small">Nama</text><text x="345" y="226" class="muted small">Stok</text><text x="410" y="226" class="muted small">Status</text>
    <text x="52" y="262" class="text small">BRS-001</text><text x="142" y="262" class="text small">Beras Premium 5kg</text><text x="345" y="262" class="text small">35</text><text x="410" y="262" class="success tiny">tersedia</text>
  </g>

  <g id="items-index" transform="translate(1748 760)">
    <text x="0" y="-18" class="text frame-title">08. Master Barang - List</text>
    <rect width="760" height="360" rx="18" class="appbg"/>
    <rect x="28" y="28" width="704" height="304" rx="8" class="panel"/>
    <text x="52" y="68" class="text h">Barang</text><rect x="648" y="45" width="64" height="30" rx="6" class="primary"/><text x="680" y="64" text-anchor="middle" class="white tiny">Tambah</text>
    <line x1="52" y1="96" x2="712" y2="96" class="line"/>
    <text x="52" y="122" class="muted small">Kode</text><text x="132" y="122" class="muted small">Nama</text><text x="312" y="122" class="muted small">Kategori</text><text x="430" y="122" class="muted small">Stok</text><text x="498" y="122" class="muted small">Status</text><text x="610" y="122" class="muted small">Aksi</text>
    <line x1="52" y1="138" x2="712" y2="138" class="line"/>
    <text x="52" y="170" class="text small">BRS-001</text><text x="132" y="170" class="text small">Beras Premium 5kg</text><text x="312" y="170" class="muted small">Beras</text><text x="430" y="170" class="text small">35</text><text x="498" y="170" class="success tiny">tersedia</text><text x="610" y="170" class="primary tiny">Detail</text><text x="650" y="170" class="primary tiny">Edit</text><text x="682" y="170" class="danger tiny">Delete</text>
    <line x1="52" y1="192" x2="712" y2="192" class="line"/>
    <text x="52" y="224" class="text small">MYK-001</text><text x="132" y="224" class="text small">Minyak Goreng 1L</text><text x="312" y="224" class="muted small">Minyak</text><text x="430" y="224" class="text small">8</text><text x="498" y="224" class="success tiny">tersedia</text><text x="610" y="224" class="primary tiny">Detail</text><text x="650" y="224" class="primary tiny">Edit</text><text x="682" y="224" class="danger tiny">Delete</text>
  </g>

  <g id="items-form" transform="translate(2552 760)">
    <text x="0" y="-18" class="text frame-title">09. Master Barang - Tambah/Edit</text>
    <rect width="760" height="360" rx="18" class="appbg"/>
    <rect x="28" y="28" width="704" height="304" rx="8" class="panel"/>
    <text x="52" y="68" class="text h">Form Barang</text>
    <text x="52" y="110" class="muted small">Kategori</text><rect x="52" y="122" width="310" height="34" rx="5" fill="#fff" stroke="#d7dce3"/>
    <text x="390" y="110" class="muted small">Kode Barang</text><rect x="390" y="122" width="318" height="34" rx="5" fill="#fff" stroke="#d7dce3"/>
    <text x="52" y="190" class="muted small">Nama Barang</text><rect x="52" y="202" width="310" height="34" rx="5" fill="#fff" stroke="#d7dce3"/>
    <text x="390" y="190" class="muted small">Stok Saat Ini</text><rect x="390" y="202" width="140" height="34" rx="5" fill="#fff" stroke="#d7dce3"/>
    <text x="548" y="190" class="muted small">Batas Minimum</text><rect x="548" y="202" width="160" height="34" rx="5" fill="#fff" stroke="#d7dce3"/>
    <rect x="52" y="282" width="80" height="32" rx="6" class="primary"/><text x="92" y="302" text-anchor="middle" class="white small">Simpan</text>
    <rect x="142" y="282" width="70" height="32" rx="6" fill="#fff" stroke="#6b7280"/><text x="177" y="302" text-anchor="middle" class="muted small">Batal</text>
  </g>

  <g id="items-detail" transform="translate(56 1200)">
    <text x="0" y="-18" class="text frame-title">10. Master Barang - Detail</text>
    <rect width="760" height="360" rx="18" class="appbg"/>
    <rect x="28" y="28" width="704" height="95" rx="8" class="panel"/>
    <text x="52" y="66" class="text h">Beras Premium 5kg</text>
    <text x="52" y="96" class="muted small">Kode: BRS-001</text><text x="210" y="96" class="muted small">Kategori: Beras</text><text x="390" y="96" class="muted small">Stok: 35</text><text x="510" y="96" class="muted small">Status: tersedia</text>
    <rect x="28" y="144" width="704" height="188" rx="8" class="panel"/>
    <text x="52" y="180" class="text h">Riwayat Mutasi</text><line x1="52" y1="204" x2="708" y2="204" class="line"/>
    <text x="52" y="232" class="muted small">Tanggal</text><text x="160" y="232" class="muted small">Tipe</text><text x="260" y="232" class="muted small">Jumlah</text><text x="370" y="232" class="muted small">Petugas</text><text x="520" y="232" class="muted small">Catatan</text>
    <text x="52" y="268" class="text small">02/06/2026</text><text x="160" y="268" class="success small">masuk</text><text x="260" y="268" class="text small">10</text><text x="370" y="268" class="text small">Administrator</text><text x="520" y="268" class="muted small">Stok awal</text>
  </g>

  <g id="users-index" transform="translate(860 1200)">
    <text x="0" y="-18" class="text frame-title">11. Master Pengguna - List</text>
    <rect width="650" height="360" rx="18" class="appbg"/>
    <rect x="28" y="28" width="594" height="304" rx="8" class="panel"/>
    <text x="52" y="68" class="text h">Pengguna</text><rect x="538" y="45" width="64" height="30" rx="6" class="primary"/><text x="570" y="64" text-anchor="middle" class="white tiny">Tambah</text>
    <line x1="52" y1="96" x2="602" y2="96" class="line"/>
    <text x="52" y="122" class="muted small">Nama</text><text x="210" y="122" class="muted small">Email</text><text x="390" y="122" class="muted small">Role</text><text x="500" y="122" class="muted small">Aksi</text>
    <line x1="52" y1="138" x2="602" y2="138" class="line"/>
    <text x="52" y="170" class="text small">Administrator</text><text x="210" y="170" class="muted small">admin@example.com</text><text x="390" y="170" class="text small">admin</text><text x="500" y="170" class="primary tiny">Detail</text><text x="540" y="170" class="primary tiny">Edit</text><text x="570" y="170" class="danger tiny">Delete</text>
    <line x1="52" y1="192" x2="602" y2="192" class="line"/>
    <text x="52" y="224" class="text small">Staff Inventory</text><text x="210" y="224" class="muted small">staff@example.com</text><text x="390" y="224" class="text small">staff</text><text x="500" y="224" class="primary tiny">Detail</text><text x="540" y="224" class="primary tiny">Edit</text><text x="570" y="224" class="danger tiny">Delete</text>
  </g>

  <g id="users-form" transform="translate(1554 1200)">
    <text x="0" y="-18" class="text frame-title">12. Master Pengguna - Tambah/Edit</text>
    <rect width="760" height="360" rx="18" class="appbg"/>
    <rect x="28" y="28" width="704" height="304" rx="8" class="panel"/>
    <text x="52" y="68" class="text h">Form Pengguna</text>
    <text x="52" y="110" class="muted small">Nama</text><rect x="52" y="122" width="310" height="34" rx="5" fill="#fff" stroke="#d7dce3"/>
    <text x="390" y="110" class="muted small">Email</text><rect x="390" y="122" width="318" height="34" rx="5" fill="#fff" stroke="#d7dce3"/>
    <text x="52" y="190" class="muted small">Role</text><rect x="52" y="202" width="310" height="34" rx="5" fill="#fff" stroke="#d7dce3"/>
    <text x="390" y="190" class="muted small">Password</text><rect x="390" y="202" width="148" height="34" rx="5" fill="#fff" stroke="#d7dce3"/>
    <text x="558" y="190" class="muted small">Konfirmasi Password</text><rect x="558" y="202" width="150" height="34" rx="5" fill="#fff" stroke="#d7dce3"/>
    <rect x="52" y="282" width="80" height="32" rx="6" class="primary"/><text x="92" y="302" text-anchor="middle" class="white small">Simpan</text>
    <rect x="142" y="282" width="70" height="32" rx="6" fill="#fff" stroke="#6b7280"/><text x="177" y="302" text-anchor="middle" class="muted small">Batal</text>
  </g>

  <g id="users-detail" transform="translate(2358 1200)">
    <text x="0" y="-18" class="text frame-title">13. Master Pengguna - Detail</text>
    <rect width="760" height="360" rx="18" class="appbg"/>
    <rect x="28" y="28" width="704" height="90" rx="8" class="panel"/>
    <text x="52" y="66" class="text h">Administrator</text><text x="52" y="92" class="muted small">admin@example.com - Admin</text>
    <rect x="28" y="140" width="704" height="192" rx="8" class="panel"/>
    <text x="52" y="176" class="text h">Riwayat Transaksi</text><line x1="52" y1="200" x2="708" y2="200" class="line"/>
    <text x="52" y="228" class="muted small">Tanggal</text><text x="160" y="228" class="muted small">Barang</text><text x="350" y="228" class="muted small">Tipe</text><text x="450" y="228" class="muted small">Jumlah</text><text x="560" y="228" class="muted small">Catatan</text>
    <text x="52" y="264" class="text small">02/06/2026</text><text x="160" y="264" class="text small">Beras Premium 5kg</text><text x="350" y="264" class="success small">masuk</text><text x="450" y="264" class="text small">10</text><text x="560" y="264" class="muted small">Stok awal</text>
  </g>

  <!-- Transaction and report -->
  <g id="inventory-stock" transform="translate(56 1640)">
    <text x="0" y="-18" class="text frame-title">14. Transaksi - Stok Masuk/Keluar</text>
    <rect width="1020" height="420" rx="18" class="appbg"/>
    <rect x="28" y="28" width="360" height="364" rx="8" class="panel"/>
    <text x="52" y="68" class="text h">Form Transaksi Stok</text>
    <text x="52" y="112" class="muted small">Barang</text><rect x="52" y="124" width="300" height="34" rx="5" fill="#fff" stroke="#d7dce3"/>
    <text x="52" y="184" class="muted small">Tipe Transaksi</text><rect x="52" y="196" width="300" height="34" rx="5" fill="#fff" stroke="#d7dce3"/><text x="66" y="218" class="muted small">Stok Masuk / Stok Keluar</text>
    <text x="52" y="260" class="muted small">Jumlah</text><rect x="52" y="272" width="130" height="34" rx="5" fill="#fff" stroke="#d7dce3"/>
    <text x="202" y="260" class="muted small">Tanggal</text><rect x="202" y="272" width="150" height="34" rx="5" fill="#fff" stroke="#d7dce3"/>
    <text x="52" y="334" class="muted small">Catatan</text><rect x="52" y="346" width="300" height="46" rx="5" fill="#fff" stroke="#d7dce3"/>
    <rect x="52" y="404" width="135" height="32" rx="6" class="primary"/><text x="119" y="424" text-anchor="middle" class="white small">Simpan Transaksi</text>
    <rect x="420" y="28" width="592" height="364" rx="8" class="panel"/>
    <text x="444" y="68" class="text h">Transaksi Terbaru</text><line x1="444" y1="96" x2="988" y2="96" class="line"/>
    <text x="444" y="124" class="muted small">Tanggal</text><text x="550" y="124" class="muted small">Barang</text><text x="760" y="124" class="muted small">Tipe</text><text x="850" y="124" class="muted small">Jumlah</text><text x="930" y="124" class="muted small">Petugas</text>
    <text x="444" y="160" class="text small">02/06/2026</text><text x="550" y="160" class="text small">Beras Premium 5kg</text><text x="760" y="160" class="success small">masuk</text><text x="850" y="160" class="text small">10</text><text x="930" y="160" class="text small">Admin</text>
  </g>

  <g id="reports" transform="translate(1120 1640)">
    <text x="0" y="-18" class="text frame-title">15. Laporan - Mutasi Stok</text>
    <rect width="1120" height="420" rx="18" class="appbg"/>
    <rect x="28" y="28" width="1064" height="88" rx="8" class="panel"/>
    <text x="52" y="62" class="muted small">Start Date</text><rect x="52" y="72" width="170" height="34" rx="5" fill="#fff" stroke="#d7dce3"/>
    <text x="246" y="62" class="muted small">End Date</text><rect x="246" y="72" width="170" height="34" rx="5" fill="#fff" stroke="#d7dce3"/>
    <rect x="440" y="72" width="72" height="34" rx="6" class="primary"/><text x="476" y="94" text-anchor="middle" class="white small">Filter</text>
    <rect x="522" y="72" width="72" height="34" rx="6" fill="#fff" stroke="#6b7280"/><text x="558" y="94" text-anchor="middle" class="muted small">Reset</text>
    <rect x="28" y="140" width="1064" height="264" rx="8" class="panel"/>
    <text x="52" y="180" class="muted small">Tanggal</text><text x="150" y="180" class="muted small">Kode</text><text x="235" y="180" class="muted small">Barang</text><text x="430" y="180" class="muted small">Kategori</text><text x="560" y="180" class="muted small">Tipe</text><text x="650" y="180" class="muted small">Jumlah</text><text x="760" y="180" class="muted small">Petugas</text><text x="900" y="180" class="muted small">Catatan</text>
    <line x1="52" y1="198" x2="1068" y2="198" class="line"/>
    <text x="52" y="234" class="text small">02/06/2026</text><text x="150" y="234" class="text small">BRS-001</text><text x="235" y="234" class="text small">Beras Premium 5kg</text><text x="430" y="234" class="muted small">Beras</text><text x="560" y="234" class="success small">masuk</text><text x="650" y="234" class="text small">10</text><text x="760" y="234" class="text small">Administrator</text><text x="900" y="234" class="muted small">Stok awal</text>
  </g>

  <!-- Mobile states -->
  <g id="mobile-dashboard" transform="translate(56 2180)">
    <text x="0" y="-18" class="text frame-title">16. Mobile - Dashboard</text>
    <rect width="390" height="650" rx="28" class="appbg"/>
    <rect width="390" height="86" rx="28" fill="#fff"/><rect y="56" width="390" height="30" fill="#fff"/>
    <rect x="18" y="22" width="40" height="36" rx="6" fill="#fff" stroke="#6b7280"/><text x="38" y="45" text-anchor="middle" class="text h">≡</text>
    <text x="78" y="36" class="text h">Dashboard</text><text x="78" y="58" class="muted small">Aplikasi Persediaan Barang Toko Sembako</text>
    <text x="320" y="36" text-anchor="end" class="text small" font-weight="800">Admin</text><rect x="324" y="22" width="48" height="30" rx="5" fill="#fff" stroke="#6b7280"/><text x="348" y="41" text-anchor="middle" class="muted tiny">Logout</text>
    <rect x="20" y="112" width="350" height="82" rx="8" class="panel"/><text x="92" y="144" class="muted body">Total Barang</text><text x="92" y="174" class="text value">2</text><rect x="38" y="132" width="42" height="42" rx="8" fill="#cfe2ff"/>
    <rect x="20" y="212" width="350" height="82" rx="8" class="panel"/><text x="92" y="244" class="muted body">Total Stok Masuk</text><text x="92" y="274" class="text value">10</text><rect x="38" y="232" width="42" height="42" rx="8" fill="#d1eadf"/>
    <rect x="20" y="314" width="350" height="220" rx="8" class="panel"/><text x="38" y="350" class="text h">5 Stok Terendah</text><line x1="38" y1="372" x2="352" y2="372" class="line"/><text x="38" y="406" class="text body">Minyak Goreng 1L</text><text x="38" y="426" class="muted small">MYK-001 - Minyak Goreng</text><text x="352" y="414" text-anchor="end" class="text h">8</text>
  </g>

  <g id="mobile-offcanvas" transform="translate(500 2180)">
    <text x="0" y="-18" class="text frame-title">17. Mobile - Offcanvas Menu</text>
    <rect width="390" height="650" rx="28" fill="#343434"/>
    <rect width="305" height="650" rx="22" class="sidebar"/><rect x="285" width="20" height="650" class="sidebar"/>
    <text x="28" y="52" class="white h">Toko Sembako</text><text x="270" y="52" class="white h">×</text>
    <rect x="24" y="92" width="255" height="42" rx="7" class="primary"/><text x="58" y="119" class="white body">Dashboard</text>
    <text x="28" y="178" class="muted small">MASTER DATA</text><text x="58" y="222" class="white body" opacity=".78">Kategori</text><text x="58" y="268" class="white body" opacity=".78">Barang</text><text x="58" y="314" class="white body" opacity=".78">Pengguna</text>
    <text x="28" y="374" class="muted small">TRANSAKSI</text><text x="58" y="420" class="white body" opacity=".78">Stok Masuk/Keluar</text>
    <text x="28" y="480" class="muted small">LAPORAN</text><text x="58" y="526" class="white body" opacity=".78">Mutasi Stok</text>
  </g>

  <g id="mobile-form" transform="translate(944 2180)">
    <text x="0" y="-18" class="text frame-title">18. Mobile - Form Transaksi</text>
    <rect width="390" height="650" rx="28" class="appbg"/>
    <rect width="390" height="76" rx="28" fill="#fff"/><rect y="50" width="390" height="26" fill="#fff"/>
    <rect x="18" y="20" width="40" height="34" rx="6" fill="#fff" stroke="#6b7280"/><text x="38" y="42" text-anchor="middle" class="text h">≡</text><text x="78" y="40" class="text h">Stok Masuk/Keluar</text>
    <rect x="20" y="104" width="350" height="520" rx="8" class="panel"/>
    <text x="38" y="142" class="text h">Form Transaksi Stok</text>
    <text x="38" y="190" class="muted small">Barang</text><rect x="38" y="202" width="314" height="38" rx="5" fill="#fff" stroke="#d7dce3"/>
    <text x="38" y="270" class="muted small">Tipe Transaksi</text><rect x="38" y="282" width="314" height="38" rx="5" fill="#fff" stroke="#d7dce3"/>
    <text x="38" y="350" class="muted small">Jumlah</text><rect x="38" y="362" width="314" height="38" rx="5" fill="#fff" stroke="#d7dce3"/>
    <text x="38" y="430" class="muted small">Tanggal</text><rect x="38" y="442" width="314" height="38" rx="5" fill="#fff" stroke="#d7dce3"/>
    <rect x="38" y="532" width="150" height="40" rx="6" class="primary"/><text x="113" y="557" text-anchor="middle" class="white small">Simpan Transaksi</text>
  </g>

  <g id="mobile-table" transform="translate(1388 2180)">
    <text x="0" y="-18" class="text frame-title">19. Mobile - Tabel Laporan</text>
    <rect width="390" height="650" rx="28" class="appbg"/>
    <rect width="390" height="76" rx="28" fill="#fff"/><rect y="50" width="390" height="26" fill="#fff"/><text x="28" y="42" class="text h">Laporan Mutasi Stok</text>
    <rect x="20" y="104" width="350" height="138" rx="8" class="panel"/>
    <text x="38" y="140" class="muted small">Start Date</text><rect x="38" y="150" width="150" height="34" rx="5" fill="#fff" stroke="#d7dce3"/>
    <text x="206" y="140" class="muted small">End Date</text><rect x="206" y="150" width="132" height="34" rx="5" fill="#fff" stroke="#d7dce3"/>
    <rect x="38" y="200" width="80" height="32" rx="6" class="primary"/><text x="78" y="220" text-anchor="middle" class="white small">Filter</text>
    <rect x="20" y="266" width="350" height="280" rx="8" class="panel"/>
    <text x="38" y="304" class="text body">Beras Premium 5kg</text><text x="38" y="325" class="muted small">02/06/2026 • BRS-001 • Beras</text><text x="38" y="348" class="success small">masuk</text><text x="338" y="335" text-anchor="end" class="text h">10</text>
    <line x1="38" y1="374" x2="352" y2="374" class="line"/>
    <text x="38" y="410" class="text body">Minyak Goreng 1L</text><text x="38" y="431" class="muted small">02/06/2026 • MYK-001 • Minyak</text><text x="38" y="454" class="warning small">keluar</text><text x="338" y="441" text-anchor="end" class="text h">2</text>
  </g>
</svg>
